<svg width="256" height="256" viewBox="0 0 256 256" fill="none" xmlns="http://www.w3.org/2000/svg">
<g clip-path="url(#clip0_1605_33798)">
<path fill-rule="evenodd" clip-rule="evenodd" d="M157.044 1.64565C150.469 -1.92578 142.245 0.508571 138.673 7.08293L14.424 235.803C10.8526 242.378 13.2869 250.602 19.8613 254.174C26.4356 257.745 34.6604 255.311 38.2319 248.737L162.481 20.0162C166.052 13.4419 163.618 5.21708 157.044 1.64565Z" fill="#FF3F3F"/>
<path fill-rule="evenodd" clip-rule="evenodd" d="M133.11 140.925C126.493 137.433 118.299 139.967 114.807 146.584L67.5589 236.127C64.0673 242.745 66.6011 250.939 73.2182 254.431C79.8353 257.922 88.03 255.389 91.5216 248.772L138.77 159.228C142.261 152.611 139.728 144.416 133.11 140.925Z" fill="#FF3F3F"/>
<path fill-rule="evenodd" clip-rule="evenodd" d="M98.9563 1.64565C105.531 -1.92578 113.756 0.508571 117.327 7.08293L241.576 235.803C245.148 242.378 242.713 250.602 236.139 254.174C229.564 257.745 221.34 255.311 217.768 248.737L93.5191 20.0162C89.9476 13.4419 92.382 5.21708 98.9563 1.64565Z" fill="#FF3F3F"/>
<path fill-rule="evenodd" clip-rule="evenodd" d="M120.471 141.286C127.019 137.667 135.261 140.042 138.88 146.59L188.233 235.898C191.852 242.447 189.477 250.689 182.929 254.308C176.38 257.926 168.138 255.551 164.52 249.003L115.166 159.695C111.548 153.147 113.922 144.905 120.471 141.286Z" fill="#FF3F3F"/>
</g>
<defs>
<clipPath id="clip0_1605_33798">
<rect width="256" height="256" fill="white"/>
</clipPath>
</defs>
</svg>
