<svg width="32" height="32" viewBox="0 0 32 32" fill="none" xmlns="http://www.w3.org/2000/svg">
<path fill-rule="evenodd" clip-rule="evenodd" d="M19.6195 0.253425C18.8002 -0.191656 17.7752 0.111719 17.3301 0.931034L1.84584 29.4348C1.40076 30.2541 1.70414 31.2791 2.52345 31.7242C3.34277 32.1692 4.36776 31.8659 4.81284 31.0466L20.2971 2.54282C20.7422 1.7235 20.4388 0.698507 19.6195 0.253425Z" fill="#FF3F3F"/>
<path fill-rule="evenodd" clip-rule="evenodd" d="M16.6369 17.6107C15.8122 17.1756 14.791 17.4914 14.3558 18.316L8.46765 29.4752C8.03252 30.2998 8.34829 31.3211 9.17293 31.7562C9.99758 32.1913 11.0188 31.8756 11.454 31.0509L17.3421 19.8918C17.7773 19.0671 17.4615 18.0459 16.6369 17.6107Z" fill="#FF3F3F"/>
<path fill-rule="evenodd" clip-rule="evenodd" d="M12.3805 0.253425C13.1998 -0.191656 14.2248 0.111719 14.6699 0.931034L30.1542 29.4348C30.5992 30.2541 30.2959 31.2791 29.4765 31.7242C28.6572 32.1692 27.6322 31.8659 27.1872 31.0466L11.7029 2.54282C11.2578 1.7235 11.5612 0.698507 12.3805 0.253425Z" fill="#FF3F3F"/>
<path fill-rule="evenodd" clip-rule="evenodd" d="M15.0617 17.6558C15.8778 17.2048 16.9049 17.5007 17.3559 18.3168L23.5064 29.4466C23.9574 30.2627 23.6615 31.2899 22.8454 31.7408C22.0293 32.1918 21.0021 31.8958 20.5512 31.0798L14.4006 19.95C13.9496 19.1339 14.2456 18.1067 15.0617 17.6558Z" fill="#FF3F3F"/>
</svg>
